
<svg xmlns="http://www.w3.org/2000/svg" style="display:none">
  <defs>
    
  </defs>

  <symbol id="icon-home" viewBox="0 0 24 24"><path d="M3 11l9-8 9 8"></path><path d="M5 10v10h14V10"></path></symbol>
  <symbol id="icon-users" viewBox="0 0 24 24"><circle cx="9" cy="8" r="3.5"></circle><path d="M3 20c0-3 3-5 6-5s6 2 6 5"></path><circle cx="17" cy="9" r="2.5"></circle><path d="M16 20c0-2 1.5-3.5 4-3.5"></path></symbol>
  <symbol id="icon-compass" viewBox="0 0 24 24"><circle cx="12" cy="12" r="9"></circle><path d="M15.5 8.5L13 13l-4.5 2.5L11 11z"></path></symbol>
  <symbol id="icon-compass-alt" viewBox="0 0 24 24"><circle cx="12" cy="12" r="9"></circle><path d="M12 3v3M12 18v3M3 12h3M18 12h3"></path></symbol>
  <symbol id="icon-skull" viewBox="0 0 24 24"><path d="M5 11a7 7 0 0114 0v3a2 2 0 01-2 2v3H7v-3a2 2 0 01-2-2z"></path><circle cx="9" cy="11" r="1.2" fill="currentColor"></circle><circle cx="15" cy="11" r="1.2" fill="currentColor"></circle><path d="M11 16h2"></path></symbol>
  <symbol id="icon-cog" viewBox="0 0 24 24"><circle cx="12" cy="12" r="3"></circle><path d="M12 1.5v3M12 19.5v3M4.5 4.5l2 2M17.5 17.5l2 2M1.5 12h3M19.5 12h3M4.5 19.5l2-2M17.5 6.5l2-2"></path></symbol>
  <symbol id="icon-sparkles" viewBox="0 0 24 24"><path d="M12 3l1.5 4.5L18 9l-4.5 1.5L12 15l-1.5-4.5L6 9l4.5-1.5z"></path><path d="M19 14l.7 2.1L22 17l-2.3.9L19 20l-.7-2.1L16 17l2.3-.9z"></path></symbol>
  <symbol id="icon-plus" viewBox="0 0 24 24"><path d="M12 5v14M5 12h14"></path></symbol>
  <symbol id="icon-search" viewBox="0 0 24 24"><circle cx="11" cy="11" r="7"></circle><path d="M20 20l-3.5-3.5"></path></symbol>
  <symbol id="icon-arrow-left" viewBox="0 0 24 24"><path d="M19 12H5M11 5l-6 7 6 7"></path></symbol>
  <symbol id="icon-arrow-right" viewBox="0 0 24 24"><path d="M5 12h14M13 5l6 7-6 7"></path></symbol>
  <symbol id="icon-chevron-right" viewBox="0 0 24 24"><path d="M9 5l7 7-7 7"></path></symbol>
  <symbol id="icon-chevron-down" viewBox="0 0 24 24"><path d="M5 9l7 7 7-7"></path></symbol>
  <symbol id="icon-play" viewBox="0 0 24 24"><path d="M7 4v16l13-8z" fill="currentColor"></path></symbol>
  <symbol id="icon-pause" viewBox="0 0 24 24"><rect x="7" y="5" width="3" height="14" fill="currentColor"></rect><rect x="14" y="5" width="3" height="14" fill="currentColor"></rect></symbol>
  <symbol id="icon-heart" viewBox="0 0 24 24"><path d="M12 21s-7-5-7-11a4 4 0 017-2.5A4 4 0 0119 10c0 6-7 11-7 11z"></path></symbol>
  <symbol id="icon-shield" viewBox="0 0 24 24"><path d="M12 3l8 3v6c0 4.5-3.5 8-8 9-4.5-1-8-4.5-8-9V6z"></path></symbol>
  <symbol id="icon-swords" viewBox="0 0 24 24"><path d="M14.5 17.5L3 6V3h3l11.5 11.5M13 19l6-6 2 2-6 6zM16 16l4-4M22 4l-2 2"></path></symbol>
  <symbol id="icon-dice" viewBox="0 0 24 24"><path d="M12 3l9 5v8l-9 5-9-5V8z"></path><path d="M12 3v18M3 8l9 5 9-5"></path></symbol>
  <symbol id="icon-map-pin" viewBox="0 0 24 24"><path d="M12 21s-7-7-7-12a7 7 0 0114 0c0 5-7 12-7 12z"></path><circle cx="12" cy="9" r="2.5"></circle></symbol>
  <symbol id="icon-book" viewBox="0 0 24 24"><path d="M4 4h6a4 4 0 014 4v12a3 3 0 00-3-3H4z"></path><path d="M20 4h-6a4 4 0 00-4 4v12a3 3 0 013-3h7z"></path></symbol>
  <symbol id="icon-edit" viewBox="0 0 24 24"><path d="M3 17v4h4l11-11-4-4L3 17z"></path><path d="M14 6l4 4"></path></symbol>
  <symbol id="icon-trash" viewBox="0 0 24 24"><path d="M4 7h16M9 7V4h6v3M6 7l1 13h10l1-13"></path></symbol>
  <symbol id="icon-check" viewBox="0 0 24 24"><path d="M4 12l5 5 11-12"></path></symbol>
  <symbol id="icon-x" viewBox="0 0 24 24"><path d="M6 6l12 12M18 6L6 18"></path></symbol>
  <symbol id="icon-sun" viewBox="0 0 24 24"><circle cx="12" cy="12" r="4"></circle><path d="M12 2v3M12 19v3M2 12h3M19 12h3M4.5 4.5l2 2M17.5 17.5l2 2M4.5 19.5l2-2M17.5 6.5l2-2"></path></symbol>
  <symbol id="icon-moon" viewBox="0 0 24 24"><path d="M20 14a8 8 0 11-10-10 7 7 0 0010 10z"></path></symbol>
  <symbol id="icon-send" viewBox="0 0 24 24"><path d="M21 3L3 11l8 3 3 8z"></path><path d="M21 3L11 14"></path></symbol>
  <symbol id="icon-zap" viewBox="0 0 24 24"><path d="M13 2L4 14h7l-1 8 9-12h-7z"></path></symbol>
  <symbol id="icon-crown" viewBox="0 0 24 24"><path d="M3 8l3 8h12l3-8-5 3-4-6-4 6z"></path><path d="M6 16h12"></path></symbol>
  <symbol id="icon-feather" viewBox="0 0 24 24"><path d="M20 4c-3 0-9 1-12 5s-3 8-4 11l13-13M12 12l-4 4"></path></symbol>
  <symbol id="icon-eye" viewBox="0 0 24 24"><path d="M2 12s4-7 10-7 10 7 10 7-4 7-10 7-10-7-10-7z"></path><circle cx="12" cy="12" r="3"></circle></symbol>
  <symbol id="icon-globe" viewBox="0 0 24 24"><circle cx="12" cy="12" r="9"></circle><path d="M3 12h18M12 3a14 14 0 010 18M12 3a14 14 0 000 18"></path></symbol>
  <symbol id="icon-pen" viewBox="0 0 24 24"><path d="M14 4l6 6L9 21H3v-6z"></path></symbol>
</svg>